<?xml version="1.0" encoding="utf-8"?>
<!-- Generator: Adobe Illustrator 19.1.0, SVG Export Plug-In . SVG Version: 6.00 Build 0)  -->
<svg version="1.1" id="Layer_1" xmlns="http://www.w3.org/2000/svg" xmlns:xlink="http://www.w3.org/1999/xlink" x="0px" y="0px"
	 viewBox="336 -18 992.8 169" style="enable-background:new 336 -18 992.8 169;" xml:space="preserve">
<style type="text/css">
	.st0{fill:#FFF100;}
	.st1{fill:none;}
	.st2{fill:#FFFFFF;}
	.st3{fill:#009E7A;}
	.st4{fill:#8ECB0D;}
</style>
<g id="HREZmP_1_">
</g>
<g>
	<g>
		<path d="M559.1,38c0-1.8-1-2.8-2.8-2.8h-5.6V21h16.4c6.1,0,8.7,2.7,8.7,8.7v65.4c0,1.8,1,2.8,2.8,2.8h19.9c1.8,0,2.8-1,2.8-2.8
			v-5.6h15.3v13.8c0,6.1-2.5,8.7-8.7,8.7h-40.2c-6.1,0-8.7-2.5-8.7-8.7L559.1,38L559.1,38z"/>
		<path d="M660.4,70.9h2.1v-0.5c0-9.3-3.8-12.8-12.1-12.8c-2.9,0-8.7,0.7-8.7,4.4v3.5h-15.2v-7c0-12.2,17.3-13.5,24.1-13.5
			c21.8,0,28.2,11.4,28.2,26.1v24.4c0,1.8,1,2.8,2.8,2.8h5.2V112h-14.6c-6,0-8.3-3.4-8.3-7.2c0-1.6,0.1-2.8,0.1-2.8h-0.3
			c0,0-5,11.6-19.8,11.6c-11.7,0-22.3-7.3-22.3-20.4C621.5,72.6,649.8,70.9,660.4,70.9z M647.8,100.9c8.7,0,14.9-9.2,14.9-17.3v-1.5
			h-2.9c-8.4,0-21.9,1.1-21.9,10.3C637.9,96.8,641.1,100.9,647.8,100.9z"/>
		<path d="M695.9,63.2c0-1.9-1-2.8-2.8-2.8h-5.2V46.6h15.5c6,0,8.6,2.7,8.6,8.6v30.1c0,7.9,2.1,13.3,10.2,13.3
			c11.8,0,18.4-10.4,18.4-22.1V46.4h16.3v48.9c0,1.8,1,2.8,2.8,2.8h5.2V112h-15c-5.6,0-8.6-2.7-8.6-7.3v-1.8c0-1.5,0.1-2.9,0.1-2.9
			h-0.3c-3,6.8-11.3,13.6-22.6,13.6c-14,0-22.6-7-22.6-24.9V63.2L695.9,63.2L695.9,63.2z"/>
		<path d="M775.7,63.2c0-1.9-1-2.8-2.8-2.8h-5.2V46.6h15c5.8,0,8.6,2.7,8.6,7.3v1.9c0,1.4-0.3,2.8-0.3,2.8h0.3
			c2.8-5.6,9.9-13.6,23.1-13.6c14.5,0,22.8,7.6,22.8,24.9v25.6c0,1.8,1,2.8,2.8,2.8h5.2v13.8h-15.5c-6.1,0-8.7-2.5-8.7-8.7V73.3
			c0-7.9-2.1-13.3-10.3-13.3c-8.7,0-15.3,5.6-17.6,13.3c-0.9,2.7-1.3,5.6-1.3,8.7v30.1h-16.1V63.2L775.7,63.2z"/>
		<path d="M884.6,45c8.4,0,23.8,3.5,23.8,14.7v7.7H894v-3.6c0-3.6-5.4-5.2-9.3-5.2c-11.3,0-19.4,8.6-19.4,20.4
			c0,13.3,9.9,20.1,20.4,20.1c11.2,0,19.4-8.8,19.4-8.8l6.8,11.3c0,0-9.7,11.8-27.6,11.8c-21.6,0-35.4-15.3-35.4-34.3
			C848.7,60.8,862,45,884.6,45z"/>
		<path d="M921.1,37.6c0-1.9-1-2.8-2.8-2.8h-5.2V21h15.5c6,0,8.7,2.7,8.7,8.6v23c0,3.2-0.3,5.6-0.3,5.6h0.3c3-6.3,11.2-13,22.4-13
			c14.6,0,22.8,7.6,22.8,24.9v25.6c0,1.8,1,2.8,2.8,2.8h5.2v13.8H975c-6,0-8.6-2.5-8.6-8.7V73.5c0-7.9-2.1-13.3-10.4-13.3
			c-8.6,0-15.3,5.6-17.7,13.6c-0.7,2.5-1,5.4-1,8.4v30.1H921L921.1,37.6L921.1,37.6z"/>
		<path d="M1040.6,19.3c22.3,0,33.3,11.6,33.3,11.6l-9.5,12.1c0,0-9.5-8.1-23.4-8.1c-15.8,0-29.3,12.4-29.3,31
			c0,19.9,13.6,32.1,29.9,32.1c14.5,0,23.1-9.5,23.1-9.5v-6.8c0-1.9-1-2.8-2.8-2.8h-5.6V64.7h14.7c6.1,0,8.7,2.5,8.7,8.6v38.9h-14.4
			v-4.4c0-1.9,0.1-3.9,0.1-3.9h-0.3c0,0-9.7,9.7-26.8,9.7c-23.9,0-44.3-18.2-44.3-47.6C994.2,39.8,1014.2,19.3,1040.6,19.3z"/>
		<path d="M1124.5,45c20,0,35.9,14.2,35.9,34.3c0,20.1-15.9,34.3-35.9,34.3c-19.9,0-35.8-14.1-35.8-34.3
			C1088.7,59.2,1104.6,45,1124.5,45z M1124.5,99.7c10.7,0,19.5-8.2,19.5-20.4c0-12.1-8.8-20.4-19.5-20.4c-10.6,0-19.4,8.3-19.4,20.4
			C1105.1,91.5,1113.9,99.7,1124.5,99.7z"/>
		<path d="M1202.4,45c20,0,35.9,14.2,35.9,34.3c0,20.1-15.9,34.3-35.9,34.3c-19.9,0-35.8-14.1-35.8-34.3
			C1166.6,59.2,1182.6,45,1202.4,45z M1202.4,99.7c10.7,0,19.5-8.2,19.5-20.4c0-12.1-8.8-20.4-19.5-20.4c-10.6,0-19.4,8.3-19.4,20.4
			C1183,91.5,1191.9,99.7,1202.4,99.7z"/>
		<path d="M1275,45c14.2,0,18.9,7.9,18.9,7.9h0.3c0,0-0.1-1.6-0.1-3.9V37.5c0-1.9-1-2.8-2.8-2.8h-5.3V20.9h15.5c6,0,8.7,2.7,8.7,8.7
			v65.8c0,1.8,1,2.8,2.8,2.8h5V112h-15c-5.9,0-8.1-2.8-8.1-6.7c0-1.4,0-2.4,0-2.4h-0.3c0,0-5.4,10.7-20.4,10.7
			c-17.7,0-29.1-14-29.1-34.3C1245.2,58.5,1257.7,45,1275,45z M1294.4,79.2c0-10.2-5.3-20.1-16.1-20.1c-9,0-16.4,7.3-16.4,20.3
			c0,12.4,6.5,20.5,16.1,20.5C1286.5,99.8,1294.4,93.7,1294.4,79.2z"/>
	</g>
	<g>
		<path class="st0" d="M449.7,103.8c2-2.7,3.2-6,3.2-9.6c0-9-7.3-16.2-16.2-16.2c-8.9,0-16.2,7.3-16.2,16.2c0,2.1,0.4,4.3,1.3,6.2
			c1,2.4,2.7,4.5,3.9,6.8c1.1,2.1,2.1,4.2,2.7,6.4c0.3,1,0.4,2.2,0.2,3.3h8.1h0.3h8.1C443.9,113.1,449.2,104.8,449.7,103.8"/>
		<path d="M446.9,118.6h-20.4l0.4-1.9c0.2-0.8,0-1.8-0.2-2.5c-0.5-2-1.4-3.9-2.5-6.1c-0.4-0.9-1-1.8-1.6-2.7
			c-0.8-1.3-1.7-2.7-2.4-4.2c-0.9-2.1-1.3-4.5-1.3-6.8c0-9.8,8-17.8,17.8-17.8c9.9,0,17.8,8,17.8,17.8c0,3.8-1.2,7.4-3.4,10.5
			c-2.7,4.2-5.2,9.7-4.7,11.9L446.9,118.6z M430.2,115.4h13c0.3-4.4,3.9-10.4,5.2-12.4l0.1-0.1c1.9-2.5,2.8-5.6,2.8-8.7
			c0-8.1-6.6-14.7-14.7-14.7s-14.7,6.6-14.7,14.7c0,1.9,0.4,3.9,1.1,5.6c0.5,1.3,1.3,2.4,2.1,3.7c0.6,1,1.2,1.9,1.8,3
			c1,1.9,2.1,4.3,2.8,6.8C430,113.9,430.1,114.6,430.2,115.4"/>
		<line class="st1" x1="429.7" y1="122.3" x2="443.7" y2="122.3"/>
		<path d="M443.7,123.8h-14c-0.9,0-1.6-0.7-1.6-1.6s0.7-1.6,1.6-1.6h14c0.9,0,1.6,0.7,1.6,1.6C445.2,123.2,444.6,123.8,443.7,123.8"
			/>
		<line class="st1" x1="431.7" y1="127.5" x2="442.1" y2="127.5"/>
		<path d="M442.1,129.1h-10.4c-0.9,0-1.6-0.7-1.6-1.6s0.7-1.6,1.6-1.6h10.4c0.9,0,1.6,0.7,1.6,1.6S442.9,129.1,442.1,129.1"/>
		<path d="M442.1,93c0,0.3-0.4,0.4-0.5,0.5s-0.3,0.1-0.4,0.1c-0.4,0.1-0.8,0.2-1.2,0.7c-0.1-0.3-0.1-0.5-0.1-0.6
			c-0.1-1-0.7-1.7-1.5-1.7c-0.8,0-1.5,0.7-1.5,1.7c-0.4-0.1-0.8-0.3-1.4-0.3c-0.1,0-0.1,0-0.2,0c0-0.1-0.1-0.3-0.1-0.4
			c0.3-0.4,0.5-1,0.6-1.8c0.1-1,0.4-2.9-0.2-3.6c-0.3-0.4-0.6-0.3-0.7-0.2c-0.6,0.4-0.7,2.1-0.7,2.1c0,1.2,0.1,2.2,0.3,3.3
			c-0.1,0.1-0.2,0.2-0.3,0.3c-1.2,0.9-2.4,0.4-2.5,0.4l0,0h-0.8v23.1h0.8V94.2c0.5,0.1,1.3,0.2,2.1,0c-0.6,0.5-1,1.2-1.3,1.9
			c-0.3,0.7-0.3,1.4-0.1,1.9c0.1,0.3,0.4,0.5,1,0.5c0.1,0,0.3,0,0.4-0.1c0.6-0.1,1.1-0.6,1.3-1.2c0.3-0.7,0.4-1.6,0.3-2.7h0.1
			c1.2,0.1,1.6,0.4,1.7,0.6c0.3,0.4,0.7,0.8,1.3,0.8c0.4,0,0.8-0.2,1.1-0.5l0,0c-0.4,0.7-0.8,1.4-1.1,2.4c-0.1,0.4-0.3,1.2,0,1.6
			c0.1,0.1,0.2,0.2,0.4,0.2c0.1,0,0.2,0,0.3-0.1c0.4-0.1,0.7-0.5,0.8-1c0.3-0.8,0.3-1.9,0.2-2.9c0.1-0.1,0.1-0.1,0.1-0.2
			c0.3-0.4,0.6-0.5,1-0.7c0.1-0.1,0.3-0.1,0.5-0.1c0.1,0,0.1-0.1,0.1-0.1V117h0.8V93.6 M434.4,96.6c-0.1,0.4-0.5,0.7-0.9,0.7
			c-0.4,0.1-0.7,0-0.7-0.1c-0.1-0.1-0.1-0.4,0.1-0.9c0.3-0.8,1-1.6,1.6-1.9C434.6,95.4,434.6,96.1,434.4,96.6 M434.9,91.7
			c-0.1-0.7-0.2-1.5-0.1-2.3c0-0.4,0.1-1.1,0.2-1.3c0,0,0,0,0.1,0.1c0.3,0.3,0.3,1.4,0.1,2.8C435,91.2,434.9,91.5,434.9,91.7
			 M438.3,94.7c-0.5,0-0.9-0.4-0.9-1c0-0.5,0.4-1,0.9-1c0.4,0,0.9,0.4,0.9,1C439.2,94.3,438.8,94.7,438.3,94.7 M438.8,98.4
			L438.8,98.4c-0.1-0.1,0-0.4,0.1-0.7c0.1-0.5,0.4-1,0.6-1.4C439.5,97.5,439.3,98.2,438.8,98.4"/>
		<polygon class="st2" points="415.4,42.3 415.4,69.1 426.4,69.1 434.3,61.2 		"/>
		<polygon class="st2" points="385.2,115.2 412,115.2 412,104.1 404.1,96.3 		"/>
		<polygon class="st3" points="393,15.2 412,34.1 412,7.3 400.9,7.3 		"/>
		<polygon class="st3" points="350.2,57.9 350.2,69 376.9,69 358.1,50.1 		"/>
		<polygon class="st2" points="404.1,91.5 412,83.6 412,72.5 385.2,72.5 		"/>
		<polygon class="st4" points="375.5,84.3 361.7,84.3 352.2,93.8 361.7,103.3 375.5,103.3 385,93.8 		"/>
		<polygon class="st4" points="400.1,57.3 400.1,43.9 390.3,34.1 376.9,34.1 376.9,47.5 386.7,57.3 		"/>
		<polygon class="st3" points="472.5,7.3 461.4,7.3 461.4,34.1 480.3,15.2 		"/>
		<polygon class="st4" points="497.8,84.3 488.3,93.8 497.8,103.3 511.7,103.3 521.1,93.8 511.7,84.3 		"/>
		<polygon class="st4" points="446.2,32.7 446.2,18.9 436.7,9.3 427.2,18.9 427.2,32.7 436.7,42.1 		"/>
		<polygon class="st2" points="446.9,69.1 458,69.1 458,42.3 439.1,61.2 		"/>
		<polygon class="st4" points="473.2,57.3 486.6,57.3 496.5,47.5 496.5,34.1 483,34.1 473.2,43.9 		"/>
		<polygon class="st3" points="496.5,69 523.2,69 523.2,57.9 515.4,50.1 		"/>
		<polygon class="st2" points="461.4,104.1 461.4,115.2 488.2,115.2 469.3,96.3 		"/>
		<polygon class="st2" points="461.4,83.6 469.3,91.5 488.2,72.5 461.4,72.5 		"/>
		<path d="M526.6,72.4V56.5l-11.3-11.2l-23.8,23.8h-30.1V39l23.8-23.8L474,3.9h-16v33.5l-21.3,21.3l-21.3-21.3V3.9h-15.9l-11.3,11.3
			L412,38.9V69h-30.2L358,45.2l-11.3,11.3v15.9h33.5l21.4,21.4l-24.7,24.7h38.4v-15.9l-8.8-8.8l8.8-8.8V72.5h12.5l8.8-8.8l8.8,8.8
			H458V85l8.8,8.8l-8.8,8.8v15.9h38.4l-24.7-24.7l21.4-21.4L526.6,72.4L526.6,72.4z M515.4,50.1l7.9,7.9v11h-26.8L515.4,50.1z
			 M461.4,7.3h11.1l7.9,7.9l-19,19V7.3L461.4,7.3z M393,15.2l7.9-7.9H412v26.8L393,15.2z M350.2,57.9l7.9-7.9l19,19h-26.9V57.9z
			 M412,104.1v11.1h-26.8l19-19L412,104.1z M412,83.6l-7.9,7.9l-19-19H412V83.6z M426.4,69.1h-11.1V42.3l19,19L426.4,69.1z
			 M446.9,69.1l-7.9-7.9l19-19V69h-11.1V69.1z M488.2,115.2h-26.8V104l7.9-7.9L488.2,115.2z M469.3,91.5l-7.9-7.9V72.5h26.8
			L469.3,91.5z"/>
		<path d="M436.7,9.3l9.5,9.5v13.8l-9.5,9.5l-9.5-9.5V18.8L436.7,9.3z M436.7,4.6l-12.9,12.9v16.7l12.9,12.9l12.9-12.9V17.5
			L436.7,4.6z"/>
		<path d="M496.5,34.1v13.4l-9.8,9.8h-13.4V43.9l9.8-9.8L496.5,34.1L496.5,34.1z M499.8,30.7h-18.2l-11.8,11.8v18.2H488l11.8-11.8
			V30.7z"/>
		<path d="M511.7,84.3l9.5,9.5l-9.5,9.5h-13.8l-9.5-9.5l9.5-9.5H511.7L511.7,84.3z M513.1,80.9h-16.7l-12.9,12.9l12.9,12.9h16.7
			L526,93.8L513.1,80.9z"/>
		<path d="M375.5,84.3l9.5,9.5l-9.5,9.5h-13.8l-9.5-9.5l9.5-9.5H375.5z M376.9,80.9h-16.6l-12.9,12.9l12.9,12.9H377l12.9-12.9
			L376.9,80.9z"/>
		<path d="M390.3,34.1l9.8,9.8v13.4h-13.4l-9.8-9.8V34.1H390.3z M391.8,30.7h-18.3v18.2l11.8,11.8h18.2V42.5L391.8,30.7z"/>
	</g>
</g>
</svg>
